<?xml version="1.0" standalone="no"?>
<svg xmlns:xlink="http://www.w3.org/1999/xlink" id="wave" style="transform:rotate(0deg); transition: 0.3s" viewBox="0 0 1440 200" version="1.1" xmlns="http://www.w3.org/2000/svg"><defs><linearGradient id="sw-gradient-0" x1="0" x2="0" y1="1" y2="0"><stop stop-color="rgba(253.093, 178.137, 225.498, 1)" offset="0%"/><stop stop-color="rgba(253.093, 90.962, 171.433, 1)" offset="100%"/></linearGradient></defs><path style="transform:translate(0, 0px); opacity:1" fill="url(#sw-gradient-0)" d="M0,180L20,153.3C40,127,80,73,120,60C160,47,200,73,240,96.7C280,120,320,140,360,140C400,140,440,120,480,103.3C520,87,560,73,600,56.7C640,40,680,20,720,30C760,40,800,80,840,110C880,140,920,160,960,163.3C1000,167,1040,153,1080,146.7C1120,140,1160,140,1200,116.7C1240,93,1280,47,1320,36.7C1360,27,1400,53,1440,53.3C1480,53,1520,27,1560,33.3C1600,40,1640,80,1680,103.3C1720,127,1760,133,1800,130C1840,127,1880,113,1920,113.3C1960,113,2000,127,2040,123.3C2080,120,2120,100,2160,76.7C2200,53,2240,27,2280,36.7C2320,47,2360,93,2400,123.3C2440,153,2480,167,2520,166.7C2560,167,2600,153,2640,133.3C2680,113,2720,87,2760,63.3C2800,40,2840,20,2860,10L2880,0L2880,200L2860,200C2840,200,2800,200,2760,200C2720,200,2680,200,2640,200C2600,200,2560,200,2520,200C2480,200,2440,200,2400,200C2360,200,2320,200,2280,200C2240,200,2200,200,2160,200C2120,200,2080,200,2040,200C2000,200,1960,200,1920,200C1880,200,1840,200,1800,200C1760,200,1720,200,1680,200C1640,200,1600,200,1560,200C1520,200,1480,200,1440,200C1400,200,1360,200,1320,200C1280,200,1240,200,1200,200C1160,200,1120,200,1080,200C1040,200,1000,200,960,200C920,200,880,200,840,200C800,200,760,200,720,200C680,200,640,200,600,200C560,200,520,200,480,200C440,200,400,200,360,200C320,200,280,200,240,200C200,200,160,200,120,200C80,200,40,200,20,200L0,200Z"/><defs><linearGradient id="sw-gradient-1" x1="0" x2="0" y1="1" y2="0"><stop stop-color="rgba(253.093, 93.82, 93.82, 0.45)" offset="0%"/><stop stop-color="rgba(250.816, 87.311, 174.004, 0.94)" offset="100%"/></linearGradient></defs><path style="transform:translate(0, 50px); opacity:0.9" fill="url(#sw-gradient-1)" d="M0,20L20,33.3C40,47,80,73,120,80C160,87,200,73,240,70C280,67,320,73,360,86.7C400,100,440,120,480,110C520,100,560,60,600,46.7C640,33,680,47,720,53.3C760,60,800,60,840,70C880,80,920,100,960,93.3C1000,87,1040,53,1080,53.3C1120,53,1160,87,1200,93.3C1240,100,1280,80,1320,66.7C1360,53,1400,47,1440,36.7C1480,27,1520,13,1560,33.3C1600,53,1640,107,1680,123.3C1720,140,1760,120,1800,96.7C1840,73,1880,47,1920,36.7C1960,27,2000,33,2040,53.3C2080,73,2120,107,2160,106.7C2200,107,2240,73,2280,73.3C2320,73,2360,107,2400,116.7C2440,127,2480,113,2520,96.7C2560,80,2600,60,2640,63.3C2680,67,2720,93,2760,113.3C2800,133,2840,147,2860,153.3L2880,160L2880,200L2860,200C2840,200,2800,200,2760,200C2720,200,2680,200,2640,200C2600,200,2560,200,2520,200C2480,200,2440,200,2400,200C2360,200,2320,200,2280,200C2240,200,2200,200,2160,200C2120,200,2080,200,2040,200C2000,200,1960,200,1920,200C1880,200,1840,200,1800,200C1760,200,1720,200,1680,200C1640,200,1600,200,1560,200C1520,200,1480,200,1440,200C1400,200,1360,200,1320,200C1280,200,1240,200,1200,200C1160,200,1120,200,1080,200C1040,200,1000,200,960,200C920,200,880,200,840,200C800,200,760,200,720,200C680,200,640,200,600,200C560,200,520,200,480,200C440,200,400,200,360,200C320,200,280,200,240,200C200,200,160,200,120,200C80,200,40,200,20,200L0,200Z"/></svg>